#!OML:ASF F:\VICON\USERDATA\INSTALL\SteveWalk\SteveWalk.ASF
:FULLY-SPECIFIED
:DEGREES
107
root -0.461948 16.3454 -22.3836 17.7824 5.06089 -1.41158
lowerback -15.4209 -0.7307 3.58479
upperback -5.25912 -1.58443 2.37012
thorax 3.03192 -0.784827 0.182559
lowerneck -4.97622 -1.32517 0.217705
upperneck 8.5697 -1.60636 -2.12838
head 3.63623 -0.878655 -0.814304
rclavicle 1.72694e-015 -1.82882e-014
rhumerus -58.2362 -36.3903 -48.7134
rradius 15.2535
rwrist 24.5368
rhand -14.5086 -33.8862
rfingers 7.12502
rthumb 11.6387 -63.543
lclavicle 1.72694e-015 -1.82882e-014
lhumerus -28.8141 3.42022 83.9241
lradius 44.0542
lwrist 9.54796
lhand -19.6964 -19.0543
lfingers 7.12502
lthumb 6.63293 10.8218
rfemur -41.8542 -3.6187 27.9325
rtibia 38.5541
rfoot -16.1108 3.66328
rtoes -9.13116
lfemur -23.7427 1.34087 -18.3007
ltibia 68.3523
lfoot 6.25685 -7.42969
ltoes -18.0754
108
root -0.456898 16.3693 -22.1876 17.9274 4.62488 -1.34385
lowerback -15.5428 -0.537238 3.43053
upperback -5.30422 -1.3099 2.33323
thorax 3.05822 -0.648228 0.277625
lowerneck -4.80163 -1.32223 0.212936
upperneck 8.50201 -1.59812 -2.19011
head 3.57823 -0.876164 -0.8304
rclavicle 1.53064e-014 -6.36111e-015
rhumerus -55.7067 -35.3566 -51.9806
rradius 15.7589
rwrist 22.2586
rhand -14.3886 -34.2073
rfingers 7.12502
rthumb 11.7544 -63.8574
lclavicle 1.53064e-014 -6.36111e-015
lhumerus -29.3641 3.48714 84.2416
lradius 43.0222
lwrist 9.26337
lhand -19.5814 -18.1013
lfingers 7.12502
lthumb 6.74395 11.7713
rfemur -41.0933 -3.31841 27.7714
rtibia 38.2955
rfoot -16.6021 3.86977
rtoes -9.29946
lfemur -25.6365 1.82539 -18.5678
ltibia 70.0113
lfoot 4.91897 -5.80282
ltoes -19.3425
109
root -0.456368 16.3879 -21.9951 18.0237 4.30305 -1.14067
lowerback -15.6315 -0.413793 3.10884
upperback -5.27427 -1.10163 2.25406
thorax 3.14653 -0.542798 0.411574
lowerneck -4.90702 -1.35048 0.266348
upperneck 8.55416 -1.63134 -2.27816
head 3.61569 -0.895282 -0.872363
rclavicle -2.44132e-015 1.59028e-015
rhumerus -52.7907 -33.7116 -55.9942
rradius 16.591
rwrist 19.161
rhand -14.2469 -34.9009
rfingers 7.12502
rthumb 11.891 -64.5433
lclavicle -2.44132e-015 1.59028e-015
lhumerus -29.7799 3.64277 84.4648
lradius 41.7787
lwrist 8.96644
lhand -19.604 -17.7269
lfingers 7.12502
lthumb 6.72211 12.1464
rfemur -40.2855 -3.01602 27.4656
rtibia 38.0211
rfoot -17.1827 3.37743
rtoes -11.5718
lfemur -27.4798 2.26379 -18.9411
ltibia 71.4186
lfoot 4.0513 -4.51277
ltoes -19.064
110
root -0.453907 16.4071 -21.8019 18.0395 4.16735 -1.02893
lowerback -15.6988 -0.340603 2.95424
upperback -5.20681 -0.984701 2.18602
thorax 3.2572 -0.483013 0.447335
lowerneck -4.96833 -1.38589 0.305043
upperneck 8.58561 -1.67701 -2.32672
head 3.63744 -0.919092 -0.89853
rclavicle 3.47873e-016 9.54166e-015
rhumerus -50.0934 -32.0287 -59.6551
rradius 17.4743
rwrist 16.3789
rhand -14.122 -35.5815
rfingers 7.12502
rthumb 12.0114 -65.2168
lclavicle 3.47873e-016 9.54166e-015
lhumerus -30.2232 3.95814 84.5572
lradius 40.2865
lwrist 8.58105
lhand -19.5284 -18.6474
lfingers 7.12502
lthumb 6.7951 11.2235
rfemur -39.3751 -2.85819 27.2793
rtibia 37.7685
rfoot -17.9068 2.73118
rtoes -14.0328
lfemur -29.1869 2.59854 -19.1816
ltibia 72.5501
lfoot 3.61052 -3.32201
ltoes -17.7701
111
root -0.45141 16.4266 -21.6089 17.9912 3.9544 -1.00484
lowerback -15.7089 -0.263132 2.8894
upperback -5.16987 -0.874074 2.16671
thorax 3.30377 -0.427504 0.48342
lowerneck -4.80909 -1.36784 0.219455
upperneck 8.51406 -1.64687 -2.33156
head 3.58234 -0.905989 -0.880619
rclavicle -9.77772e-015 -2.38542e-015
rhumerus -47.6675 -29.869 -63.1519
rradius 18.593
rwrist 13.577
rhand -13.7804 -36.5091
rfingers 7.12502
rthumb 12.3409 -66.1248
lclavicle -9.77772e-015 -2.38542e-015
lhumerus -30.9146 4.43465 84.6523
lradius 38.8989
lwrist 8.11304
lhand -19.3708 -19.51
lfingers 7.12502
lthumb 6.94723 10.356
rfemur -38.389 -2.61719 27.1498
rtibia 37.5536
rfoot -18.5855 2.50015
rtoes -13.8962
lfemur -30.7279 3.01724 -19.3522
ltibia 73.3948
lfoot 3.00415 -2.14388
ltoes -16.9062
112
root -0.454559 16.4414 -21.4199 17.968 3.85984 -0.681143
lowerback -15.6677 -0.301858 2.45577
upperback -5.1915 -0.853763 2.0946
thorax 3.2656 -0.416986 0.656303
lowerneck -4.77857 -1.314 0.101622
upperneck 8.64459 -1.56844 -2.2663
head 3.62444 -0.86879 -0.836084
rclavicle -2.13072e-015 -1.19271e-014
rhumerus -45.626 -27.5088 -66.3311
rradius 19.9498
rwrist 10.7873
rhand -13.3936 -37.4211
rfingers 7.12502
rthumb 12.7138 -67.0141
lclavicle -2.13072e-015 -1.19271e-014
lhumerus -31.7819 4.80506 84.7569
lradius 37.697
lwrist 7.61541
lhand -19.2021 -18.7959
lfingers 7.12502
lthumb 7.11008 11.0646
rfemur -37.4535 -2.44166 26.7253
rtibia 37.37
rfoot -19.1554 2.22267
rtoes -13.0161
lfemur -32.2553 3.22415 -19.7936
ltibia 74.0234
lfoot 1.98663 -1.12801
ltoes -14.8004
113
root -0.463594 16.4604 -21.2236 17.827 4.25421 -0.124857
lowerback -15.5898 -0.528243 1.77145
upperback -5.15621 -1.04073 1.9634
thorax 3.27128 -0.507832 0.871532
lowerneck -4.89278 -1.26954 0.090276
upperneck 8.9597 -1.50752 -2.20302
head 3.75885 -0.838509 -0.815675
rclavicle 1.75055e-014 -1.98785e-014
rhumerus -43.8761 -25.6738 -68.8745
rradius 21.1064
rwrist 8.50252
rhand -13.4379 -37.471
rfingers 7.12502
rthumb 12.6711 -67.0666
lclavicle 1.75055e-014 -1.98785e-014
lhumerus -32.513 4.98693 84.7973
lradius 36.3992
lwrist 7.22813
lhand -18.8471 -16.9148
lfingers 7.12502
lthumb 7.45277 12.934
rfemur -36.3338 -2.62661 26.1835
rtibia 37.1947
rfoot -19.6916 1.66062
rtoes -12.2847
lfemur -33.586 2.90816 -20.2948
ltibia 74.3548
lfoot 0.831278 -0.280578
ltoes -12.0348
114
root -0.455561 16.4657 -21.0436 17.9835 3.40907 -0.174714
lowerback -15.6377 -0.213607 1.79443
upperback -5.15148 -0.628397 1.87352
thorax 3.29888 -0.304253 0.838316
lowerneck -5.19625 -1.2174 0.0917815
upperneck 9.27485 -1.42778 -2.23195
head 3.93128 -0.803381 -0.82928
rclavicle 3.90736e-015 4.77083e-015
rhumerus -42.0691 -24.2789 -70.9415
rradius 21.8782
rwrist 6.84542
rhand -13.8787 -36.5519
rfingers 7.12502
rthumb 12.246 -66.1734
lclavicle 3.90736e-015 4.77083e-015
lhumerus -33.0455 5.34996 84.7782
lradius 34.9257
lwrist 6.94982
lhand -18.6798 -16.333
lfingers 7.12502
lthumb 7.6142 13.5099
rfemur -35.726 -2.32363 26.1006
rtibia 37.0236
rfoot -20.2068 1.93224
rtoes -12.0428
lfemur -35.3314 3.73285 -20.7138
ltibia 74.5998
lfoot -0.395288 0.67116
ltoes -10.1578
115
root -0.45016 16.4768 -20.8426 17.6909 3.39392 -0.134815
lowerback -15.4597 -0.211501 1.78048
upperback -5.07078 -0.61901 1.84096
thorax 3.28875 -0.299728 0.814044
lowerneck -5.24497 -1.16661 0.155254
upperneck 9.39232 -1.35399 -2.32348
head 3.98302 -0.769655 -0.869422
rclavicle 8.56016e-015 6.36111e-015
rhumerus -40.3713 -22.8889 -72.7459
rradius 22.3877
rwrist 5.64239
rhand -14.475 -35.5281
rfingers 7.12502
rthumb 11.6711 -65.183
lclavicle 8.56016e-015 6.36111e-015
lhumerus -33.8054 5.87164 84.6873
lradius 33.4638
lwrist 6.60346
lhand -18.8486 -17.2588
lfingers 7.12502
lthumb 7.45125 12.59
rfemur -34.4434 -2.59829 26.102
rtibia 36.8019
rfoot -20.8559 1.7778
rtoes -12.6465
lfemur -36.413 3.81257 -20.8827
ltibia 74.5193
lfoot -1.74044 1.38771
ltoes -8.35635
116
root -0.450609 16.4889 -20.6466 17.5355 3.49455 -0.127911
lowerback -15.2655 -0.221315 1.74571
upperback -5.11148 -0.617883 1.80158
thorax 3.14207 -0.300044 0.793188
lowerneck -4.86788 -1.13253 0.36914
upperneck 9.23826 -1.31748 -2.46702
head 3.85247 -0.747628 -0.946834
rclavicle 1.57506e-014 -7.95139e-015
rhumerus -39.0099 -20.8039 -74.7993
rradius 23.3957
rwrist 4.03126
rhand -15.1015 -35.1988
rfingers 7.12502
rthumb 11.0668 -64.887
lclavicle 1.57506e-014 -7.95139e-015
lhumerus -34.6613 6.4151 84.484
lradius 32.0644
lwrist 6.15742
lhand -18.8742 -18.001
lfingers 7.12502
lthumb 7.42656 11.8486
rfemur -33.3526 -2.8737 26.1735
rtibia 36.5319
rfoot -21.3148 1.87107
rtoes -12.0483
lfemur -37.6548 3.77946 -20.9402
ltibia 74.2449
lfoot -2.89178 1.88751
ltoes -6.02658
117
root -0.455767 16.4965 -20.4508 17.3226 3.6325 -0.110775
lowerback -15.0376 -0.255946 1.67238
upperback -5.14389 -0.642555 1.74066
thorax 2.98634 -0.313129 0.767261
lowerneck -4.49069 -1.11401 0.533028
upperneck 9.23392 -1.29726 -2.57169
head 3.77584 -0.7343 -1.00501
rclavicle 1.17749e-014 -1.51076e-014
rhumerus -37.9609 -18.4757 -76.8534
rradius 24.9971
rwrist 2.13046
rhand -15.4468 -35.8874
rfingers 7.12502
rthumb 10.7338 -65.5931
lclavicle 1.17749e-014 -1.51076e-014
lhumerus -35.55 6.95116 84.1516
lradius 30.674
lwrist 5.70672
lhand -18.6563 -18.5916
lfingers 7.12502
lthumb 7.63695 11.2505
rfemur -32.2256 -3.05378 26.2099
rtibia 36.3547
rfoot -21.8156 1.98575
rtoes -10.5646
lfemur -38.7643 3.67047 -20.9694
ltibia 73.7682
lfoot -3.90421 2.40496
ltoes -4.91269
118
root -0.453488 16.5026 -20.2509 17.0799 3.39494 -0.0362781
lowerback -14.9714 -0.189967 1.57298
upperback -5.03644 -0.538744 1.64907
thorax 3.06396 -0.261359 0.745294
lowerneck -4.51622 -1.08364 0.538152
upperneck 9.46529 -1.25118 -2.58449
head 3.86345 -0.71314 -1.01144
rclavicle 3.44767e-015 -3.97569e-015
rhumerus -36.7449 -16.6399 -78.4873
rradius 26.4063
rwrist 0.746186
rhand -15.4592 -36.2952
rfingers 7.12502
rthumb 10.7219 -66.0016
lclavicle 3.44767e-015 -3.97569e-015
lhumerus -36.2145 7.60446 83.8069
lradius 29.1292
lwrist 5.13655
lhand -18.5622 -19.1288
lfingers 7.12502
lthumb 7.72768 10.71
rfemur -30.9941 -3.11635 26.0935
rtibia 36.1444
rfoot -22.3264 2.06841
rtoes -9.71917
lfemur -39.6834 3.79044 -21.2163
ltibia 73.0445
lfoot -4.85653 3.01722
ltoes -4.8366
